<?xml version="1.0" encoding="iso-8859-1"?>
<!-- Generator: Adobe Illustrator 19.0.0, SVG Export Plug-In . SVG Version: 6.00 Build 0)  -->
<svg version="1.1" id="Layer_1" xmlns="http://www.w3.org/2000/svg" xmlns:xlink="http://www.w3.org/1999/xlink" x="0px" y="0px"
	 viewBox="0 0 512 512" style="enable-background:new 0 0 512 512;" xml:space="preserve">
<g>
	<rect x="360.827" y="172.458" style="fill:#F2F2F2;" width="67.733" height="212.878"/>
	<rect x="348.731" y="143.431" style="fill:#F2F2F2;" width="91.925" height="29.028"/>
	<rect x="348.731" y="385.336" style="fill:#F2F2F2;" width="91.925" height="29.028"/>
	<rect x="222.128" y="172.458" style="fill:#F2F2F2;" width="67.733" height="212.878"/>
	<rect x="210.042" y="143.431" style="fill:#F2F2F2;" width="91.925" height="29.028"/>
	<rect x="210.042" y="385.336" style="fill:#F2F2F2;" width="91.925" height="29.028"/>
	<rect x="83.44" y="172.458" style="fill:#F2F2F2;" width="67.733" height="212.878"/>
	<rect x="71.349" y="143.431" style="fill:#F2F2F2;" width="91.925" height="29.028"/>
	<rect x="71.349" y="385.336" style="fill:#F2F2F2;" width="91.925" height="29.028"/>
</g>
<rect x="46.049" y="414.363" style="fill:#FFAD61;" width="419.911" height="39.114"/>
<g>
	<rect x="10.199" y="453.477" style="fill:#F2F2F2;" width="491.602" height="45.791"/>
	<rect x="35.472" y="96.688" style="fill:#F2F2F2;" width="441.054" height="46.745"/>
</g>
<polygon style="fill:#FFAD61;" points="256,12.735 57.974,96.685 454.026,96.685 "/>
<polygon style="fill:#666666;" points="256,50.894 147.986,96.685 364.014,96.685 "/>
<g>
	<path style="fill:#4D3D36;" d="M501.801,443.275h-25.647V414.36c0-5.632-4.566-10.199-10.199-10.199h-15.104v-18.829
		c0-5.632-4.566-10.199-10.199-10.199h-1.896V182.658h1.896c5.633,0,10.199-4.567,10.199-10.199v-18.83h25.676
		c5.633,0,10.199-4.567,10.199-10.199V96.685c0-5.632-4.566-10.199-10.199-10.199h-20.429L259.981,3.344
		c-2.545-1.078-5.418-1.078-7.963,0L55.901,86.486H35.472c-5.633,0-10.199,4.567-10.199,10.199v46.745
		c0,5.632,4.566,10.199,10.199,10.199h25.676v18.83c0,5.632,4.566,10.199,10.199,10.199h1.896v192.475h-1.896
		c-5.633,0-10.199,4.567-10.199,10.199v18.829H46.045c-5.633,0-10.199,4.567-10.199,10.199v28.915H10.199
		C4.566,443.276,0,447.843,0,453.475v45.79c0,5.632,4.566,10.199,10.199,10.199h491.602c5.633,0,10.199-4.567,10.199-10.199v-45.79
		C512,447.841,507.434,443.275,501.801,443.275z M312.16,404.161v-18.829c0-5.632-4.566-10.199-10.199-10.199h-1.896V182.658h1.896
		c5.633,0,10.199-4.567,10.199-10.199v-18.83h26.369v18.83c0,5.632,4.566,10.199,10.199,10.199h1.896v192.475h-1.896
		c-5.633,0-10.199,4.567-10.199,10.199v18.829H312.16V404.161z M173.47,404.161v-18.829c0-5.632-4.566-10.199-10.199-10.199h-1.896
		V182.658h1.896c5.633,0,10.199-4.567,10.199-10.199v-18.83h26.369v18.83c0,5.632,4.566,10.199,10.199,10.199h1.896v192.475h-1.896
		c-5.633,0-10.199,4.567-10.199,10.199v18.829H173.47V404.161z M279.667,375.133h-47.333V182.658h47.333V375.133z M220.239,162.26
		v-8.631h71.524v8.631H220.239z M291.761,395.531v8.63h-71.524v-8.63H291.761z M430.452,395.531v8.63h-71.524v-8.63H430.452z
		 M418.358,375.133h-47.335V182.658h47.335V375.133z M358.928,162.26v-8.631h71.524v8.631H358.928z M256,23.812l147.836,62.673
		h-37.749L259.981,41.503c-2.545-1.078-5.418-1.078-7.963,0L145.913,86.486h-37.749L256,23.812z M313.824,86.486H198.176L256,61.971
		L313.824,86.486z M45.671,133.231v-26.347h420.657v26.347H45.671z M81.548,162.26v-8.631h71.524v8.631H81.548z M93.642,182.658
		h47.335v192.475H93.642V182.658z M153.072,395.531v8.63H81.548v-8.63H153.072z M455.755,424.559v18.716H56.245v-18.716H455.755z
		 M491.602,463.673v25.392H20.398v-25.392H491.602z"/>
	<path style="fill:#4D3D36;" d="M399.809,367.171c5.633,0,10.199-4.567,10.199-10.199v-89.753c0-5.632-4.566-10.199-10.199-10.199
		s-10.199,4.567-10.199,10.199v89.753C389.61,362.604,394.176,367.171,399.809,367.171z"/>
	<path style="fill:#4D3D36;" d="M399.809,248.86c5.633,0,10.199-4.567,10.199-10.199v-4.08c0-5.632-4.566-10.199-10.199-10.199
		s-10.199,4.567-10.199,10.199v4.08C389.61,244.293,394.176,248.86,399.809,248.86z"/>
</g>
<g>
</g>
<g>
</g>
<g>
</g>
<g>
</g>
<g>
</g>
<g>
</g>
<g>
</g>
<g>
</g>
<g>
</g>
<g>
</g>
<g>
</g>
<g>
</g>
<g>
</g>
<g>
</g>
<g>
</g>
</svg>
