<?xml version="1.0" encoding="iso-8859-1"?>
<!-- Generator: Adobe Illustrator 19.0.0, SVG Export Plug-In . SVG Version: 6.00 Build 0)  -->
<svg version="1.1" id="Layer_1" xmlns="http://www.w3.org/2000/svg" xmlns:xlink="http://www.w3.org/1999/xlink" x="0px" y="0px"
	 viewBox="0 0 512.001 512.001" style="enable-background:new 0 0 512.001 512.001;" xml:space="preserve">
<g>
	<rect x="64.319" y="209.532" style="fill:#66E6FF;" width="51.494" height="170.881"/>
	<rect x="174.939" y="209.532" style="fill:#66E6FF;" width="51.494" height="170.881"/>
	<rect x="285.564" y="209.532" style="fill:#66E6FF;" width="51.494" height="170.881"/>
	<rect x="396.19" y="209.532" style="fill:#66E6FF;" width="51.494" height="170.881"/>
</g>
<rect x="64.319" y="209.532" style="opacity:0.15;fill:#333333;enable-background:new    ;" width="51.494" height="32.199"/>
<rect x="52.023" y="178.738" style="fill:#2EC8E6;" width="76.081" height="41.522"/>
<rect x="64.319" y="348.214" style="opacity:0.15;fill:#333333;enable-background:new    ;" width="51.494" height="32.199"/>
<rect x="52.023" y="369.68" style="fill:#2EC8E6;" width="76.081" height="52.255"/>
<rect x="174.939" y="209.532" style="opacity:0.15;fill:#333333;enable-background:new    ;" width="51.494" height="32.199"/>
<rect x="162.649" y="178.738" style="fill:#2EC8E6;" width="76.081" height="41.522"/>
<rect x="174.939" y="348.214" style="opacity:0.15;fill:#333333;enable-background:new    ;" width="51.494" height="32.199"/>
<rect x="162.649" y="369.68" style="fill:#2EC8E6;" width="76.081" height="52.255"/>
<rect x="285.564" y="209.532" style="opacity:0.15;fill:#333333;enable-background:new    ;" width="51.494" height="32.199"/>
<rect x="273.275" y="178.738" style="fill:#2EC8E6;" width="76.081" height="41.522"/>
<rect x="285.564" y="348.214" style="opacity:0.15;fill:#333333;enable-background:new    ;" width="51.494" height="32.199"/>
<rect x="273.275" y="369.68" style="fill:#2EC8E6;" width="76.081" height="52.255"/>
<rect x="396.19" y="209.532" style="opacity:0.15;fill:#333333;enable-background:new    ;" width="51.494" height="32.199"/>
<rect x="383.89" y="178.738" style="fill:#2EC8E6;" width="76.081" height="41.522"/>
<rect x="396.19" y="348.214" style="opacity:0.15;fill:#333333;enable-background:new    ;" width="51.494" height="32.199"/>
<rect x="383.89" y="369.68" style="fill:#2EC8E6;" width="76.081" height="52.255"/>
<g>
	<path style="fill:#CCF7FF;" d="M499.051,169.166L301.433,34.529c-27.41-18.674-63.456-18.674-90.866,0L12.951,169.166
		c-9.043,6.161-4.682,20.304,6.26,20.304h473.581C503.732,189.47,508.092,175.326,499.051,169.166z"/>
	<path style="fill:#CCF7FF;" d="M459.038,411.199H52.964c-18.446,0-33.399,14.953-33.399,33.399l0,0v27.998h472.873v-27.998l0,0
		C492.437,426.152,477.484,411.199,459.038,411.199z"/>
</g>
<rect x="8.073" y="444.597" style="fill:#66E6FF;" width="495.857" height="46.881"/>
<circle style="fill:#2EC8E6;" cx="255.995" cy="109.693" r="32.749"/>
<g>
	<rect x="8.073" y="467.973" style="opacity:0.15;fill:#293133;enable-background:new    ;" width="495.857" height="23.5"/>
	<path style="opacity:0.15;fill:#293133;enable-background:new    ;" d="M241.14,109.697c0-14.984,10.068-27.609,23.805-31.503
		c-2.844-0.806-5.842-1.247-8.944-1.247c-18.086,0-32.749,14.662-32.749,32.749c0,18.087,14.662,32.749,32.749,32.749
		c3.103,0,6.1-0.441,8.944-1.247C251.208,137.306,241.14,124.681,241.14,109.697z"/>
</g>
<g>
	<path style="fill:#26150C;" d="M256,150.495c22.497,0,40.8-18.302,40.8-40.799s-18.303-40.8-40.8-40.8s-40.799,18.302-40.799,40.8
		C215.202,132.193,233.504,150.495,256,150.495z M256,84.997c13.619,0,24.7,11.08,24.7,24.7c0,13.619-11.08,24.699-24.7,24.699
		c-13.618,0-24.699-11.08-24.699-24.699C231.301,96.078,242.382,84.997,256,84.997z"/>
	<path style="fill:#26150C;" d="M503.929,436.548h-4.233c-3.181-16.094-15.708-28.862-31.67-32.406v-34.465
		c0-4.447-3.604-8.05-8.05-8.05h-4.244V228.308h4.244c4.446,0,8.05-3.603,8.05-8.05v-22.739h24.767
		c8.594,0,15.784-5.306,18.315-13.52c2.532-8.213-0.422-16.647-7.524-21.487L305.966,27.875
		C291.175,17.798,273.898,12.471,256,12.471c-17.897,0-35.174,5.327-49.966,15.404L8.418,162.513
		C1.315,167.353-1.638,175.787,0.893,184c2.532,8.213,9.722,13.52,18.316,13.52h24.767v22.739c0,4.447,3.604,8.05,8.05,8.05h4.244
		v133.319h-4.244c-4.446,0-8.05,3.603-8.05,8.05v34.464c-15.963,3.544-28.489,16.312-31.67,32.406H8.073
		c-4.446,0-8.05,3.603-8.05,8.05v46.882c0,4.447,3.604,8.05,8.05,8.05h495.856c4.446,0,8.05-3.603,8.05-8.05v-46.882
		C511.979,440.151,508.375,436.548,503.929,436.548z M52.027,181.42H19.21c-1.97,0-2.682-1.356-2.931-2.164
		c-0.249-0.808-0.424-2.329,1.204-3.438L215.101,41.18c12.107-8.249,26.25-12.609,40.901-12.609c14.65,0,28.794,4.361,40.901,12.609
		l197.616,134.639c1.628,1.109,1.453,2.63,1.204,3.438c-0.249,0.808-0.962,2.164-2.93,2.164h-32.816h-76.081h-34.542h-76.08H238.73
		h-76.081h-34.542H52.027V181.42z M447.682,377.726h4.244v25.422h-59.982v-25.422h4.244H447.682z M404.237,361.627V228.308h35.396
		v133.319H404.237z M447.682,212.208h-51.495h-4.244v-14.689h59.982v14.689H447.682z M349.352,361.627h-4.244V228.308h4.244
		c4.446,0,8.05-3.603,8.05-8.05v-22.739h18.443v22.739c0,4.447,3.604,8.05,8.05,8.05h4.244v133.319h-4.244
		c-4.446,0-8.05,3.603-8.05,8.05v33.472h-18.443v-33.472C357.402,365.231,353.798,361.627,349.352,361.627z M337.059,377.726h4.244
		v25.422h-59.981v-25.422h4.244H337.059z M293.614,361.627V228.308h35.394v133.319H293.614z M337.059,212.208h-51.494h-4.244
		v-14.689h59.981v14.689H337.059z M238.73,361.627h-4.244V228.308h4.244c4.446,0,8.05-3.603,8.05-8.05v-22.739h18.443v22.739
		c0,4.447,3.604,8.05,8.05,8.05h4.244v133.319h-4.244c-4.446,0-8.05,3.603-8.05,8.05v33.472h-18.443v-33.472
		C246.779,365.231,243.175,361.627,238.73,361.627z M226.437,377.726h4.244v25.422h-59.982v-25.422h4.244H226.437z M182.992,361.627
		V228.308h35.396v133.319H182.992z M226.437,212.208h-51.495h-4.244v-14.689h59.982v14.689H226.437z M128.107,361.627h-4.244
		V228.308h4.244c4.446,0,8.05-3.603,8.05-8.05v-22.739h18.443v22.739c0,4.447,3.604,8.05,8.05,8.05h4.244v133.319h-4.244
		c-4.446,0-8.05,3.603-8.05,8.05v33.472h-18.443v-33.472C136.157,365.231,132.553,361.627,128.107,361.627z M115.813,377.726h4.244
		v25.422H60.076v-25.422h4.244H115.813z M72.369,361.627V228.308h35.394v133.319H72.369z M115.813,212.208H64.319h-4.244v-14.689
		h59.981v14.689H115.813z M52.964,419.248h75.143h34.542h76.081h34.542h76.08h34.542h75.143c11.165,0,20.667,7.257,24.039,17.3
		H28.925C32.296,426.505,41.799,419.248,52.964,419.248z M495.879,483.43H16.122v-30.782h3.442h472.873h3.443v30.782H495.879z"/>
</g>
<g>
</g>
<g>
</g>
<g>
</g>
<g>
</g>
<g>
</g>
<g>
</g>
<g>
</g>
<g>
</g>
<g>
</g>
<g>
</g>
<g>
</g>
<g>
</g>
<g>
</g>
<g>
</g>
<g>
</g>
</svg>
