<?xml version="1.0" encoding="utf-8"?>
<!-- Generator: Adobe Illustrator 24.0.2, SVG Export Plug-In . SVG Version: 6.00 Build 0)  -->
<svg version="1.1" id="Layer_1" xmlns="http://www.w3.org/2000/svg" xmlns:xlink="http://www.w3.org/1999/xlink" x="0px" y="0px"
	 viewBox="0 0 512 512" enable-background="new 0 0 512 512" xml:space="preserve">
<g>
	<g>
		<path fill="#FFA229" d="M394.5,392c-12.6-10.4-33.6-17.2-57.5-17.2c-23.8,0-44.8,6.8-57.4,17.2h-12.4v22.6
			c0,22,31.3,39.8,69.9,39.8c38.6,0,69.9-17.8,69.9-39.8V392H394.5z"/>
		<path fill="#FCD751" d="M394.5,366.6c-12.6-10.4-33.6-17.2-57.5-17.2c-23.8,0-44.8,6.8-57.5,17.2h-12.4v22.6
			c0,22,31.3,39.8,69.9,39.8c38.6,0,69.9-17.8,69.9-39.8v-22.6H394.5z"/>
		<path fill="#FFA229" d="M394.5,341.3c-12.6-10.4-33.6-17.2-57.5-17.2c-23.8,0-44.8,6.8-57.5,17.2h-12.4v22.6
			c0,22,31.3,39.8,69.9,39.8c38.6,0,69.9-17.8,69.9-39.8v-22.6H394.5z"/>
		<path fill="#FCD751" d="M394.5,315.9c-12.6-10.4-33.6-17.2-57.5-17.2c-23.8,0-44.8,6.8-57.5,17.2h-12.4v22.6
			c0,22,31.3,39.8,69.9,39.8c38.6,0,69.9-17.8,69.9-39.8v-22.6H394.5z"/>
		<path fill="#FFA229" d="M394.5,290.5c-12.6-10.4-33.6-17.2-57.5-17.2c-23.8,0-44.9,6.8-57.5,17.2h-12.4v22.6
			c0,22,31.3,39.8,69.9,39.8c38.6,0,69.9-17.8,69.9-39.8v-22.6H394.5z"/>
		<path fill="#FCD751" d="M406.9,290.5c0,22-31.3,39.8-69.9,39.8c-38.6,0-69.9-17.8-69.9-39.8c0-22,31.3-39.8,69.9-39.8
			C375.6,250.7,406.9,268.6,406.9,290.5z"/>
		<path fill="#FFA229" d="M395.8,290.5c0,18.5-26.3,33.5-58.9,33.5c-32.5,0-58.8-15-58.8-33.5c0-18.5,26.3-33.5,58.8-33.5
			C369.5,257,395.8,272,395.8,290.5z"/>
		<path fill="#FCD751" d="M382.6,290.5c0,14.4-20.5,26-45.7,26c-25.2,0-45.6-11.6-45.6-26c0-14.3,20.4-26,45.6-26
			C362.2,264.5,382.6,276.2,382.6,290.5z"/>
		<g>
			<path fill="#FFA229" d="M332.6,307c-3-0.1-5.7-0.3-8-0.5c-2.3-0.3-4.1-0.7-5.3-1.1l3.1-5.2c0.9,0.3,2.3,0.6,4,0.9
				c1.7,0.3,3.8,0.5,6.2,0.6v-9.2c-1.7-0.4-3.3-0.9-4.9-1.4c-1.6-0.5-3.1-1.1-4.3-1.8c-1.3-0.7-2.3-1.6-3.1-2.6
				c-0.7-1-1.1-2.2-1.1-3.6c0-2.6,1.2-4.6,3.6-6.1c2.4-1.4,5.7-2.4,9.9-2.8v-4.1h8.3v3.9c2.3,0.1,4.4,0.3,6.1,0.5
				c1.7,0.3,3.4,0.6,4.9,1l-2.9,5c-0.9-0.2-2.1-0.5-3.4-0.7c-1.4-0.2-3-0.4-4.7-0.5v8.5c1.7,0.4,3.3,0.9,5,1.4
				c1.7,0.5,3.2,1.2,4.5,1.9c1.3,0.7,2.4,1.6,3.2,2.6c0.8,1,1.2,2.1,1.2,3.5c0,2.8-1.2,5-3.7,6.5c-2.5,1.6-5.9,2.6-10.2,3v4.2h-8.3
				V307z M329.5,282.5c0,0.9,0.6,1.7,1.9,2.3c1.3,0.6,2.8,1.2,4.7,1.7v-7.4c-2.5,0.1-4.2,0.4-5.1,1
				C330,280.8,329.5,281.6,329.5,282.5z M344.4,297.8c0-1-0.7-1.8-2-2.4c-1.4-0.6-3-1.2-4.9-1.7v8c2.3-0.1,4.1-0.6,5.2-1.2
				C343.9,299.8,344.4,298.9,344.4,297.8z"/>
		</g>
	</g>
	<g>
		<g>
			<path fill="#1C4670" d="M228,251.1V238V251.1c-32.2,0-62.5-12.5-85.2-35.3c-22.8-22.8-35.3-53-35.3-85.2
				c0-32.2,12.5-62.5,35.3-85.2c22.8-22.8,53-35.3,85.2-35.3c32.2,0,62.4,12.5,85.2,35.3c22.8,22.8,35.3,53,35.3,85.2
				c0,32.2-12.5,62.4-35.3,85.2C290.5,238.5,260.2,251.1,228,251.1z M228,36.2c-25.2,0-48.9,9.8-66.7,27.6
				c-17.8,17.8-27.7,41.5-27.6,66.8c0,25.2,9.8,48.9,27.6,66.7S202.8,225,228,225h0c25.2,0,48.9-9.8,66.7-27.6
				c17.8-17.8,27.6-41.5,27.6-66.7c0-25.2-9.8-48.9-27.6-66.8C276.9,46,253.2,36.2,228,36.2z"/>
		</g>
		<g>
			<rect x="215" y="236" fill="#1C4670" width="26.1" height="81.7"/>
		</g>
		<path fill="#AEBFCE" d="M250.3,476.8c0,7.3-5.9,13.2-13.2,13.2l-18.2,0c-7.3,0-13.2-5.9-13.2-13.2V305.2c0-7.3,5.9-13.2,13.2-13.2
			h18.2c7.3,0,13.2,5.9,13.2,13.2V476.8z"/>
		<g>
			<rect x="205.7" y="319" fill="#FCD751" width="44.6" height="6.5"/>
		</g>
		<g>
			<rect x="205.7" y="334.4" fill="#FCD751" width="44.6" height="6.5"/>
		</g>
		<g>
			<rect x="205.7" y="456.5" fill="#FCD751" width="44.6" height="6.5"/>
		</g>
		<g>
			<rect x="205.7" y="441.1" fill="#FCD751" width="44.6" height="6.5"/>
		</g>
	</g>
	<g>
		<path fill="#FCD751" d="M261.8,137.9c3.7-6.1,5.8-13.3,5.8-20.9c0-22.3-18.1-40.4-40.4-40.4c-22.3,0-40.4,18.1-40.4,40.4
			c0,7.6,2.1,14.8,5.8,20.9c10.9,19.5,13.1,24.2,13.3,33.1c0.2,13.4,0,24,0,24h21.3h21.3c0,0-0.2-10.7,0-24
			C248.6,162,250.9,157.4,261.8,137.9z"/>
		<path fill="#002254" d="M227.2,201.1H212c2.2,12.2,15.1,12.2,15.1,12.2s12.9,0,15.2-12.2H227.2z"/>
		<path fill="#768296" d="M254.7,181.2c0,3.9-3.1,7-7,7h-41c-3.9,0-7-3.1-7-7l0,0c0-3.9,3.1-7,7-7h41
			C251.5,174.2,254.7,177.4,254.7,181.2L254.7,181.2z"/>
		<path fill="#768296" d="M252.5,179.9c0,3.1-2.9,5.6-6.5,5.6h-37.7c-3.6,0-6.5-2.5-6.5-5.6l0,0c0-3.1,2.9-5.6,6.5-5.6H246
			C249.6,174.2,252.5,176.7,252.5,179.9L252.5,179.9z"/>
		<path fill="#768296" d="M254.7,195c0,3.9-3.1,7-7,7h-41c-3.9,0-7-3.1-7-7l0,0c0-3.9,3.1-7,7-7h41C251.5,188,254.7,191.1,254.7,195
			L254.7,195z"/>
		<path fill="#FFA229" d="M228,47.8c1.5,0,2.8,1.2,2.8,2.8v16.1c0,1.5-1.3,2.7-2.8,2.7l0,0c-1.5,0-2.8-1.2-2.8-2.7V50.6
			C225.3,49.1,226.5,47.8,228,47.8L228,47.8z"/>
		<path fill="#FFA229" d="M191.4,57.3c1.3-0.8,3-0.3,3.8,1l8.1,14c0.8,1.3,0.3,3-1,3.8l0,0c-1.3,0.8-3,0.3-3.8-1l-8.1-14
			C189.6,59.8,190,58.1,191.4,57.3L191.4,57.3z"/>
		<path fill="#FFA229" d="M164.4,83.9c0.8-1.3,2.4-1.8,3.8-1l14,8.1c1.3,0.8,1.8,2.5,1,3.8l0,0c-0.8,1.3-2.5,1.8-3.8,1l-14-8.1
			C164,86.9,163.6,85.2,164.4,83.9L164.4,83.9z"/>
		<path fill="#FFA229" d="M154.3,120.4c0-1.5,1.2-2.8,2.8-2.8h16.1c1.5,0,2.8,1.2,2.8,2.8l0,0c0,1.5-1.2,2.8-2.8,2.8H157
			C155.5,123.2,154.3,122,154.3,120.4L154.3,120.4z"/>
		<path fill="#FFA229" d="M163.8,157.1c-0.8-1.3-0.3-3,1-3.8l14-8.1c1.3-0.8,3-0.3,3.8,1l0,0c0.8,1.3,0.3,3-1,3.8l-14,8.1
			C166.2,158.9,164.5,158.4,163.8,157.1L163.8,157.1z"/>
		<path fill="#FFA229" d="M264.7,57.3c-1.3-0.8-3-0.3-3.8,1l-8.1,14c-0.8,1.3-0.3,3,1,3.8l0,0c1.3,0.8,3,0.3,3.8-1l8.1-14
			C266.5,59.8,266,58.1,264.7,57.3L264.7,57.3z"/>
		<path fill="#FFA229" d="M291.7,83.9c-0.8-1.3-2.5-1.8-3.8-1L274,91c-1.3,0.8-1.8,2.5-1,3.8l0,0c0.8,1.3,2.5,1.8,3.8,1l14-8.1
			C292,86.9,292.5,85.2,291.7,83.9L291.7,83.9z"/>
		<path fill="#FFA229" d="M301.8,120.4c0-1.5-1.2-2.8-2.8-2.8h-16.1c-1.5,0-2.8,1.2-2.8,2.8l0,0c0,1.5,1.2,2.8,2.8,2.8H299
			C300.6,123.2,301.8,122,301.8,120.4L301.8,120.4z"/>
		<path fill="#FFA229" d="M292.3,157.1c0.8-1.3,0.3-3-1-3.8l-14-8.1c-1.3-0.8-3-0.3-3.8,1l0,0c-0.8,1.3-0.3,3,1,3.8l14,8.1
			C289.8,158.9,291.5,158.4,292.3,157.1L292.3,157.1z"/>
		<path fill="#768296" d="M252.5,193.6c0,3.1-2.9,5.6-6.5,5.6h-37.7c-3.6,0-6.5-2.5-6.5-5.6l0,0c0-3.1,2.9-5.6,6.5-5.6H246
			C249.6,188,252.5,190.5,252.5,193.6L252.5,193.6z"/>
	</g>
	<g>
		<g>
			<path fill="#FCD751" d="M480.6,414.4c0,34.8-28.2,63-63,63c-34.8,0-63-28.2-63-63c0-34.8,28.2-63,63-63
				C452.4,351.4,480.6,379.6,480.6,414.4z"/>
			<path fill="#FFA229" d="M470,414.4c0,28.9-23.5,52.4-52.4,52.4c-28.9,0-52.4-23.4-52.4-52.4c0-28.9,23.4-52.4,52.4-52.4
				C446.5,362.1,470,385.5,470,414.4z"/>
			<path fill="#FCD751" d="M460.1,414.4c0,23.4-19,42.5-42.5,42.5c-23.4,0-42.5-19-42.5-42.5c0-23.5,19-42.5,42.5-42.5
				C441,371.9,460.1,391,460.1,414.4z"/>
			<g>
				<path fill="#FFA229" d="M413.6,441.3c-2.8-0.1-5.3-0.4-7.4-0.9c-2.1-0.5-3.8-1.1-5-1.7l2.9-8.5c0.9,0.6,2.1,1.1,3.8,1.6
					c1.6,0.5,3.5,0.9,5.7,1v-15c-1.5-0.7-3.1-1.4-4.6-2.3c-1.5-0.8-2.9-1.8-4-3c-1.2-1.2-2.1-2.6-2.9-4.3c-0.7-1.7-1.1-3.7-1.1-5.9
					c0-4.3,1.1-7.6,3.4-9.9c2.2-2.4,5.3-3.9,9.2-4.6V381h7.7v6.5c2.2,0.1,4.1,0.4,5.7,0.9c1.6,0.5,3.1,1,4.5,1.6l-2.7,8.2
					c-0.8-0.4-1.9-0.8-3.2-1.2c-1.3-0.4-2.8-0.7-4.4-0.9V410c1.5,0.7,3.1,1.5,4.6,2.3c1.5,0.9,2.9,1.9,4.1,3.1
					c1.2,1.2,2.2,2.6,3,4.2c0.8,1.6,1.1,3.5,1.1,5.7c0,4.6-1.1,8.1-3.4,10.7c-2.3,2.5-5.5,4.2-9.5,4.9v6.9h-7.7V441.3z M410.7,401.4
					c0,1.5,0.6,2.7,1.7,3.7c1.2,1,2.6,1.9,4.4,2.8v-12.1c-2.3,0.1-4,0.7-4.8,1.7C411.1,398.6,410.7,399.9,410.7,401.4z M424.5,426.4
					c0-1.6-0.6-2.9-1.9-3.9c-1.2-1-2.8-1.9-4.5-2.7v13c2.2-0.2,3.8-0.9,4.8-2C424,429.6,424.5,428.2,424.5,426.4z"/>
			</g>
		</g>
	</g>
	<g>
		<path fill="#1C4670" d="M161.6,430.1c0,0-49.1,1.1-59.7-8.1c-10.6,9.2-59.7,8.1-59.7,8.1s-6.3,1.7-6.1,10.4
			c0.1,8.6,6.1,9.2,6.1,9.2h59.7h59.7c0,0,6-0.6,6.1-9.2C167.9,431.8,161.6,430.1,161.6,430.1z"/>
		<g>
			<path fill="#1C4670" d="M161.6,430.1c0,0-0.6,0-3.8,0c1.2,0.4,5.4,2.1,5.3,7.6c-0.1,6.4-6.9,5.4-6.9,5.4h-54.3H47.6
				c0,0-6.7,1-6.9-5.4c-0.1-5.6,4.1-7.3,5.3-7.6c-3.2,0-3.8,0-3.8,0s-6.3,1.7-6.1,10.4c0.1,8.6,6.1,9.2,6.1,9.2h59.7h59.7
				c0,0,6-0.6,6.1-9.2C167.9,431.8,161.6,430.1,161.6,430.1z"/>
		</g>
		<path fill="#FCD751" d="M117.8,244.8c0,4.8-3.9,8.7-8.7,8.7H94.6c-4.8,0-8.7-3.9-8.7-8.7l0,0c0-4.8,3.9-8.7,8.7-8.7h14.5
			C113.9,236.2,117.8,240.1,117.8,244.8L117.8,244.8z"/>
		<path fill="#768296" d="M101.9,250.7c-50.2,0-90.8,40.7-90.8,90.8c0,50.2,40.7,90.8,90.8,90.8c50.2,0,90.8-40.7,90.8-90.8
			C192.7,291.4,152,250.7,101.9,250.7z M101.9,413.9c-39.9,0-72.3-32.4-72.3-72.3c0-40,32.4-72.3,72.3-72.3
			c39.9,0,72.3,32.4,72.3,72.3C174.2,381.5,141.8,413.9,101.9,413.9z"/>
		<path fill="#E3FDFF" d="M101.9,269.3c-39.9,0-72.3,32.4-72.3,72.3c0,39.9,32.4,72.3,72.3,72.3c39.9,0,72.3-32.4,72.3-72.3
			C174.2,301.6,141.8,269.3,101.9,269.3z"/>
		<path fill="#FFFFFF" d="M101.9,269.3c-37.6,0-68.1,30.5-68.1,68.1c0,37.6,30.5,68.1,68.1,68.1c37.6,0,68.1-30.5,68.1-68.1
			C170,299.7,139.5,269.3,101.9,269.3z"/>
		<g>
			<path fill="#768296" d="M126.4,331.9c-11.7,12.3-22.1,21.4-23.3,20.2c-1.2-1.1,7.2-12.1,18.9-24.4c11.7-12.3,22.1-21.4,23.3-20.2
				C146.5,308.6,138,319.6,126.4,331.9z"/>
			<path fill="#768296" d="M82.8,328.8c12.3,11.7,21.4,22.1,20.2,23.3c-1.2,1.2-12.1-7.3-24.4-18.9c-12.3-11.7-21.4-22.1-20.2-23.3
				C59.6,308.6,70.5,317.1,82.8,328.8z"/>
		</g>
		<path fill="#768296" d="M104.1,410.5c0,6.3-1,11.5-2.2,11.5c-1.2,0-2.2-5.1-2.2-11.5c0-6.4,1-11.5,2.2-11.5
			C103.1,399,104.1,404.2,104.1,410.5z"/>
		<path fill="#768296" d="M104.1,272.6c0-6.3-1-11.5-2.2-11.5c-1.2,0-2.2,5.2-2.2,11.5c0,6.3,1,11.5,2.2,11.5
			C103.1,284.1,104.1,278.9,104.1,272.6z"/>
		<path fill="#768296" d="M170.8,339.3c6.3,0,11.5,1,11.5,2.2c0,1.2-5.1,2.2-11.5,2.2c-6.4,0-11.5-1-11.5-2.2
			C159.3,340.3,164.5,339.3,170.8,339.3z"/>
		<path fill="#768296" d="M32.9,339.3c-6.3,0-11.5,1-11.5,2.2c0,1.2,5.2,2.2,11.5,2.2c6.3,0,11.5-1,11.5-2.2
			C44.4,340.3,39.3,339.3,32.9,339.3z"/>
		<path fill="#768296" d="M155.2,392.5c3.5,3.5,5.7,6.8,5.1,7.5c-0.7,0.7-4-1.6-7.5-5.1c-3.5-3.5-5.7-6.8-5.1-7.5
			C148.4,386.7,151.8,389,155.2,392.5z"/>
		<path fill="#768296" d="M51,288.2c-3.5-3.5-6.8-5.7-7.5-5.1c-0.7,0.7,1.6,4.1,5.1,7.5c3.5,3.5,6.8,5.7,7.5,5.1
			C56.7,295.1,54.4,291.7,51,288.2z"/>
		<path fill="#768296" d="M152.8,288.2c3.4-3.5,6.8-5.7,7.5-5.1c0.7,0.7-1.6,4.1-5.1,7.5c-3.5,3.5-6.8,5.7-7.5,5.1
			C147,295.1,149.3,291.7,152.8,288.2z"/>
		<path fill="#768296" d="M48.5,392.5c-3.5,3.5-5.7,6.8-5.1,7.5c0.7,0.7,4-1.6,7.5-5.1c3.5-3.5,5.7-6.8,5.1-7.5
			C55.4,386.7,52,389,48.5,392.5z"/>
	</g>
</g>
</svg>
